<svg width="32" height="32" viewBox="0 0 32 32" fill="none" xmlns="http://www.w3.org/2000/svg">
<path d="M8.39648 9.15479C8.7793 8.7583 9.23047 8.44385 9.75 8.21143C10.2764 7.97217 10.7549 7.85254 11.1855 7.85254C11.3564 7.85254 11.4932 7.90381 11.5957 8.00635C11.7051 8.10889 11.7598 8.24561 11.7598 8.4165C11.7598 8.69678 11.6094 8.87451 11.3086 8.94971C10.8711 9.05225 10.4883 9.16846 10.1602 9.29834C9.83887 9.42139 9.51416 9.63672 9.18604 9.94434C8.9126 10.2314 8.70068 10.5459 8.55029 10.8877C8.40674 11.2227 8.29395 11.5952 8.21191 12.0054C8.15039 12.3267 7.95898 12.4873 7.6377 12.4873C7.4668 12.4873 7.33008 12.4326 7.22754 12.3232C7.125 12.2139 7.07715 12.0669 7.08398 11.8823C7.09766 11.4312 7.22754 10.9526 7.47363 10.4468C7.71973 9.94092 8.02734 9.51025 8.39648 9.15479ZM18.2197 7.73975C18.3701 7.73975 18.5034 7.79785 18.6196 7.91406C18.7358 8.02344 18.7939 8.15674 18.7939 8.31396C18.7939 8.47119 18.7358 8.60791 18.6196 8.72412C18.5034 8.8335 18.3701 8.88818 18.2197 8.88818H13.2568C13.0928 8.88818 12.9526 8.8335 12.8364 8.72412C12.7271 8.60791 12.6724 8.47119 12.6724 8.31396C12.6724 8.15674 12.7271 8.02344 12.8364 7.91406C12.9526 7.79785 13.0928 7.73975 13.2568 7.73975H18.2197ZM23.0801 9.15479C23.4355 9.51025 23.7363 9.94092 23.9824 10.4468C24.2285 10.9526 24.3584 11.4312 24.3721 11.8823C24.3789 12.0669 24.3311 12.2139 24.2285 12.3232C24.1328 12.4326 24.0029 12.4873 23.8389 12.4873C23.5176 12.4873 23.3228 12.3267 23.2544 12.0054C23.1792 11.5952 23.0664 11.2227 22.916 10.8877C22.7725 10.5459 22.5571 10.2314 22.27 9.94434C21.9487 9.63672 21.6206 9.41797 21.2856 9.28809C20.9575 9.1582 20.585 9.04541 20.168 8.94971C19.8535 8.87451 19.6963 8.69678 19.6963 8.4165C19.6963 8.24561 19.751 8.10889 19.8604 8.00635C19.9697 7.90381 20.1099 7.85254 20.2808 7.85254C20.7114 7.85254 21.1865 7.97217 21.7061 8.21143C22.2324 8.45068 22.6904 8.76514 23.0801 9.15479ZM24.4951 18.9985C24.4951 19.1558 24.437 19.2925 24.3208 19.4087C24.2046 19.5181 24.0713 19.5728 23.9209 19.5728C23.7568 19.5728 23.6167 19.5181 23.5005 19.4087C23.3911 19.2925 23.3364 19.1558 23.3364 18.9985V14.0151C23.3364 13.8647 23.3911 13.7349 23.5005 13.6255C23.6167 13.5093 23.7568 13.4512 23.9209 13.4512C24.0713 13.4512 24.2046 13.5093 24.3208 13.6255C24.437 13.7349 24.4951 13.8647 24.4951 14.0151V18.9985ZM23.0801 23.8384C22.6836 24.2349 22.2256 24.5493 21.7061 24.7817C21.1865 25.0142 20.7114 25.1338 20.2808 25.1406C20.1099 25.1406 19.9697 25.0894 19.8604 24.9868C19.751 24.8843 19.6963 24.7476 19.6963 24.5767C19.6963 24.2964 19.8535 24.1152 20.168 24.0332C20.6055 23.9375 20.9849 23.8247 21.3062 23.6948C21.6343 23.5718 21.9556 23.353 22.27 23.0386C22.5571 22.7515 22.7725 22.4404 22.916 22.1055C23.0664 21.7705 23.1792 21.3979 23.2544 20.9878C23.3228 20.6665 23.5176 20.5059 23.8389 20.5059C24.0029 20.5059 24.1328 20.5605 24.2285 20.6699C24.3311 20.7793 24.3789 20.9229 24.3721 21.1006C24.3584 21.5586 24.2285 22.0405 23.9824 22.5464C23.7363 23.0522 23.4355 23.4829 23.0801 23.8384ZM13.2568 25.2534C13.0928 25.2534 12.9526 25.1953 12.8364 25.0791C12.7271 24.9697 12.6724 24.8364 12.6724 24.6792C12.6724 24.522 12.7271 24.3853 12.8364 24.269C12.9526 24.1597 13.0928 24.105 13.2568 24.105H18.2197C18.3701 24.105 18.5034 24.1597 18.6196 24.269C18.7358 24.3853 18.7939 24.522 18.7939 24.6792C18.7939 24.8364 18.7358 24.9697 18.6196 25.0791C18.5034 25.1953 18.3701 25.2534 18.2197 25.2534H13.2568ZM8.39648 23.8384C8.02734 23.4829 7.71973 23.0522 7.47363 22.5464C7.22754 22.0405 7.09766 21.5586 7.08398 21.1006C7.07715 20.9229 7.125 20.7793 7.22754 20.6699C7.33008 20.5605 7.4668 20.5059 7.6377 20.5059C7.95898 20.5059 8.15039 20.6665 8.21191 20.9878C8.29395 21.3979 8.40674 21.7705 8.55029 22.1055C8.70068 22.4404 8.9126 22.7515 9.18604 23.0386C9.51416 23.353 9.84229 23.5752 10.1704 23.7051C10.5054 23.8418 10.8848 23.9512 11.3086 24.0332C11.6094 24.1152 11.7598 24.2964 11.7598 24.5767C11.7598 24.7476 11.7051 24.8843 11.5957 24.9868C11.4932 25.0894 11.3564 25.1406 11.1855 25.1406C10.7549 25.1338 10.2764 25.0107 9.75 24.7715C9.23047 24.5391 8.7793 24.228 8.39648 23.8384ZM6.97119 14.0151C6.97119 13.8647 7.02588 13.7349 7.13525 13.6255C7.25146 13.5093 7.3916 13.4512 7.55566 13.4512C7.70605 13.4512 7.83936 13.5093 7.95557 13.6255C8.07178 13.7349 8.12988 13.8647 8.12988 14.0151V18.9985C8.12988 19.1558 8.07178 19.2925 7.95557 19.4087C7.83936 19.5181 7.70605 19.5728 7.55566 19.5728C7.3916 19.5728 7.25146 19.5181 7.13525 19.4087C7.02588 19.2925 6.97119 19.1558 6.97119 18.9985V14.0151ZM13.021 22.9976C12.4058 22.9976 11.8486 22.9497 11.3496 22.854C10.8574 22.7515 10.4268 22.5225 10.0576 22.167C9.69531 21.8047 9.46289 21.374 9.36035 20.875C9.26465 20.376 9.2168 19.8154 9.2168 19.1934V13.769C9.2168 13.1606 9.26465 12.6104 9.36035 12.1182C9.46289 11.6191 9.69531 11.1919 10.0576 10.8364C10.4199 10.4741 10.8472 10.2417 11.3394 10.1392C11.8384 10.0366 12.3921 9.98535 13.0005 9.98535H18.4351C19.0571 9.98535 19.6177 10.0366 20.1167 10.1392C20.6157 10.2417 21.043 10.4741 21.3984 10.8364C21.7607 11.1919 21.9897 11.6191 22.0854 12.1182C22.188 12.6172 22.2393 13.1777 22.2393 13.7998V19.1934C22.2393 19.8154 22.188 20.376 22.0854 20.875C21.9897 21.374 21.7607 21.8047 21.3984 22.167C21.043 22.5225 20.6157 22.7515 20.1167 22.854C19.6177 22.9497 19.0571 22.9976 18.4351 22.9976H13.021Z" fill="#6EBCEB"/>
</svg>
