<svg width="32" height="32" viewBox="0 0 32 32" fill="none" xmlns="http://www.w3.org/2000/svg">
<path d="M8.47266 21.3057C8.18555 21.3057 7.95312 21.2202 7.77539 21.0493C7.60449 20.8784 7.51904 20.6562 7.51904 20.3828V18.5884C7.51904 18.3149 7.60449 18.0928 7.77539 17.9219C7.95312 17.7441 8.18555 17.6553 8.47266 17.6553H10.8516C11.1318 17.6553 11.3608 17.7441 11.5386 17.9219C11.7163 18.0928 11.8052 18.3149 11.8052 18.5884V20.3828C11.8052 20.6562 11.7163 20.8784 11.5386 21.0493C11.3608 21.2202 11.1318 21.3057 10.8516 21.3057H8.47266ZM4.9248 14.3433V12.1079H25.9043V14.3433H4.9248ZM7.08838 24.8535C6.06299 24.8535 5.28711 24.5938 4.76074 24.0742C4.23438 23.5615 3.97119 22.7925 3.97119 21.7671V11.2568C3.97119 10.2314 4.23438 9.4624 4.76074 8.94971C5.28711 8.43018 6.06299 8.17041 7.08838 8.17041H23.7305C24.7695 8.17041 25.5488 8.43018 26.0684 8.94971C26.5879 9.46924 26.8477 10.2383 26.8477 11.2568V21.7671C26.8477 22.7856 26.5879 23.5547 26.0684 24.0742C25.5488 24.5938 24.7695 24.8535 23.7305 24.8535H7.08838ZM7.16016 23.1104H23.6587C24.1235 23.1104 24.479 22.9873 24.7251 22.7412C24.978 22.4951 25.1045 22.1294 25.1045 21.644V11.3799C25.1045 10.8945 24.978 10.5288 24.7251 10.2827C24.479 10.0366 24.1235 9.91357 23.6587 9.91357H7.16016C6.69531 9.91357 6.33984 10.0366 6.09375 10.2827C5.84766 10.5288 5.72461 10.8945 5.72461 11.3799V21.644C5.72461 22.1294 5.84766 22.4951 6.09375 22.7412C6.33984 22.9873 6.69531 23.1104 7.16016 23.1104Z" fill="#F4C956"/>
</svg>
