<svg width="32" height="32" viewBox="0 0 32 32" fill="none" xmlns="http://www.w3.org/2000/svg">
<path d="M10.4883 10.1392L12.6826 12.3335C11.1309 12.9624 9.74316 13.9263 8.51953 15.2251C8.41699 15.3345 8.30078 15.3892 8.1709 15.3892C8.04102 15.3892 7.9248 15.3379 7.82227 15.2354L6.46875 13.8921C6.37988 13.7964 6.33203 13.6973 6.3252 13.5947C6.3252 13.4854 6.36279 13.3828 6.43799 13.2871C6.95068 12.6719 7.55225 12.0977 8.24268 11.5645C8.93311 11.0312 9.68164 10.5562 10.4883 10.1392ZM17.2251 11.4004L14.5386 8.71387C15.0718 8.59766 15.5879 8.51562 16.0869 8.46777C16.5859 8.41309 17.085 8.38574 17.584 8.38574C19.0811 8.38574 20.5303 8.60107 21.9316 9.03174C23.333 9.45557 24.6147 10.0366 25.7769 10.7749C26.9458 11.5132 27.9233 12.3506 28.7095 13.2871C28.7847 13.3828 28.8223 13.4854 28.8223 13.5947C28.8223 13.6973 28.7744 13.7964 28.6787 13.8921L27.3252 15.2354C27.2295 15.3379 27.1167 15.3926 26.9868 15.3994C26.8638 15.3994 26.7544 15.3516 26.6587 15.2559C25.4624 14.0391 24.1123 13.0957 22.6084 12.4258C21.1045 11.7559 19.4468 11.4072 17.6353 11.3799C17.5669 11.3799 17.4985 11.3833 17.4302 11.3901C17.3618 11.3901 17.2935 11.3936 17.2251 11.4004ZM14.8257 14.4766L17.4302 17.0708C16.4868 17.0845 15.5845 17.293 14.7231 17.6963C13.8687 18.0996 13.1543 18.6226 12.5801 19.2651C12.4707 19.3745 12.3511 19.4326 12.2212 19.4395C12.0981 19.4463 11.9819 19.3984 11.8726 19.2959L10.355 17.8091C10.2661 17.7202 10.2183 17.6245 10.2114 17.522C10.2046 17.4126 10.2388 17.3101 10.314 17.2144C10.8267 16.606 11.4692 16.0625 12.2417 15.584C13.021 15.0986 13.8823 14.7295 14.8257 14.4766ZM24.2183 18.3833L20.3013 14.4766C21.2241 14.7021 22.0889 15.0645 22.8955 15.5635C23.7021 16.0625 24.3516 16.6128 24.8438 17.2144C24.9189 17.3101 24.9531 17.4092 24.9463 17.5117C24.9395 17.6143 24.8916 17.7134 24.8027 17.8091L24.2183 18.3833ZM17.584 19.7573C18.2676 19.7573 18.8931 19.9111 19.4604 20.2188C20.0347 20.5195 20.4824 20.8784 20.8037 21.2954C20.8789 21.3843 20.9097 21.4834 20.896 21.5928C20.8823 21.7021 20.8345 21.7979 20.7524 21.8799L18.3838 24.1562C18.1992 24.334 18.0454 24.457 17.9224 24.5254C17.8062 24.5938 17.6934 24.6279 17.584 24.6279C17.4746 24.6279 17.3584 24.5938 17.2354 24.5254C17.1191 24.457 16.9688 24.334 16.7842 24.1562L14.4155 21.8799C14.3335 21.7979 14.2822 21.7124 14.2617 21.6235C14.248 21.5278 14.2651 21.439 14.313 21.3569C14.6411 20.9194 15.0957 20.5435 15.6768 20.229C16.2578 19.9146 16.8936 19.7573 17.584 19.7573ZM25.7563 23.7153L9.40137 7.37061C9.25781 7.23389 9.18604 7.05957 9.18604 6.84766C9.18604 6.62891 9.25781 6.44775 9.40137 6.3042C9.55176 6.14697 9.73291 6.07178 9.94482 6.07861C10.1567 6.07861 10.3379 6.15381 10.4883 6.3042L26.833 22.6387C26.9834 22.7891 27.0586 22.9702 27.0586 23.1821C27.0586 23.3872 26.9834 23.5649 26.833 23.7153C26.6895 23.8657 26.5117 23.9409 26.2998 23.9409C26.0879 23.9409 25.9067 23.8657 25.7563 23.7153Z" fill="#BAE5E7"/>
</svg>
