<svg width="32" height="32" viewBox="0 0 32 32" fill="none" xmlns="http://www.w3.org/2000/svg">
<path d="M8.9502 15.7275C8.29395 15.7275 7.79834 15.5635 7.46338 15.2354C7.13525 14.9072 6.97119 14.4014 6.97119 13.7178V9.52393C6.97119 8.84717 7.13525 8.34473 7.46338 8.0166C7.79834 7.68164 8.29395 7.51416 8.9502 7.51416H13.2158C13.8721 7.51416 14.3643 7.68164 14.6924 8.0166C15.0273 8.34473 15.1948 8.84717 15.1948 9.52393V13.7178C15.1948 14.4014 15.0273 14.9072 14.6924 15.2354C14.3643 15.5635 13.8721 15.7275 13.2158 15.7275H8.9502ZM8.93994 14.2817H13.2158C13.3867 14.2817 13.5132 14.2373 13.5952 14.1484C13.6841 14.0596 13.7285 13.9229 13.7285 13.7383V9.50342C13.7285 9.31885 13.6841 9.18555 13.5952 9.10352C13.5132 9.01465 13.3867 8.97021 13.2158 8.97021H8.93994C8.76904 8.97021 8.63916 9.01465 8.55029 9.10352C8.46826 9.18555 8.42725 9.31885 8.42725 9.50342V13.7383C8.42725 13.9229 8.46826 14.0596 8.55029 14.1484C8.63916 14.2373 8.76904 14.2817 8.93994 14.2817ZM10.2319 12.6719C10.1021 12.6719 10.0371 12.5933 10.0371 12.436V10.7954C10.0371 10.6519 10.1021 10.5801 10.2319 10.5801H11.9238C12.0605 10.5801 12.1289 10.6519 12.1289 10.7954V12.436C12.1289 12.5933 12.0605 12.6719 11.9238 12.6719H10.2319ZM18.7222 15.7275C18.0659 15.7275 17.5703 15.5635 17.2354 15.2354C16.9072 14.9072 16.7432 14.4014 16.7432 13.7178V9.52393C16.7432 8.84717 16.9072 8.34473 17.2354 8.0166C17.5703 7.68164 18.0659 7.51416 18.7222 7.51416H22.9878C23.644 7.51416 24.1362 7.68164 24.4644 8.0166C24.7993 8.34473 24.9668 8.84717 24.9668 9.52393V13.7178C24.9668 14.4014 24.7993 14.9072 24.4644 15.2354C24.1362 15.5635 23.644 15.7275 22.9878 15.7275H18.7222ZM18.7222 14.2817H23.0083C23.1724 14.2817 23.2954 14.2373 23.3774 14.1484C23.4595 14.0596 23.5005 13.9229 23.5005 13.7383V9.50342C23.5005 9.31885 23.4595 9.18555 23.3774 9.10352C23.2954 9.01465 23.1724 8.97021 23.0083 8.97021H18.7222C18.5444 8.97021 18.4146 9.01465 18.3325 9.10352C18.2505 9.18555 18.2095 9.31885 18.2095 9.50342V13.7383C18.2095 13.9229 18.2505 14.0596 18.3325 14.1484C18.4146 14.2373 18.5444 14.2817 18.7222 14.2817ZM20.0552 12.6719C19.9253 12.6719 19.8604 12.5933 19.8604 12.436V10.7954C19.8604 10.6519 19.9253 10.5801 20.0552 10.5801H21.7573C21.8872 10.5801 21.9521 10.6519 21.9521 10.7954V12.436C21.9521 12.5933 21.8872 12.6719 21.7573 12.6719H20.0552ZM8.9502 25.4995C8.29395 25.4995 7.79834 25.3354 7.46338 25.0073C7.13525 24.6792 6.97119 24.1768 6.97119 23.5V19.2959C6.97119 18.6191 7.13525 18.1167 7.46338 17.7886C7.79834 17.4604 8.29395 17.2964 8.9502 17.2964H13.2158C13.8721 17.2964 14.3643 17.4604 14.6924 17.7886C15.0273 18.1167 15.1948 18.6191 15.1948 19.2959V23.5C15.1948 24.1768 15.0273 24.6792 14.6924 25.0073C14.3643 25.3354 13.8721 25.4995 13.2158 25.4995H8.9502ZM8.93994 24.0537H13.2158C13.3867 24.0537 13.5132 24.0093 13.5952 23.9204C13.6841 23.8315 13.7285 23.6982 13.7285 23.5205V19.2856C13.7285 19.1011 13.6841 18.9644 13.5952 18.8755C13.5132 18.7866 13.3867 18.7422 13.2158 18.7422H8.93994C8.76904 18.7422 8.63916 18.7866 8.55029 18.8755C8.46826 18.9644 8.42725 19.1011 8.42725 19.2856V23.5205C8.42725 23.6982 8.46826 23.8315 8.55029 23.9204C8.63916 24.0093 8.76904 24.0537 8.93994 24.0537ZM10.2319 22.4438C10.1021 22.4438 10.0371 22.3687 10.0371 22.2183V20.5674C10.0371 20.4238 10.1021 20.3521 10.2319 20.3521H11.9238C12.0605 20.3521 12.1289 20.4238 12.1289 20.5674V22.2183C12.1289 22.3687 12.0605 22.4438 11.9238 22.4438H10.2319ZM17.4097 19.8496C17.2866 19.8496 17.2251 19.771 17.2251 19.6138V17.9731C17.2251 17.8228 17.2866 17.7476 17.4097 17.7476H19.1118C19.2485 17.7476 19.3169 17.8228 19.3169 17.9731V19.6138C19.3169 19.771 19.2485 19.8496 19.1118 19.8496H17.4097ZM22.5879 19.8496C22.458 19.8496 22.3931 19.771 22.3931 19.6138V17.9731C22.3931 17.8228 22.458 17.7476 22.5879 17.7476H24.2798C24.4233 17.7476 24.4951 17.8228 24.4951 17.9731V19.6138C24.4951 19.771 24.4233 19.8496 24.2798 19.8496H22.5879ZM20.0244 22.4336C19.8945 22.4336 19.8296 22.355 19.8296 22.1978V20.5571C19.8296 20.4067 19.8945 20.3315 20.0244 20.3315H21.7163C21.8599 20.3315 21.9316 20.4067 21.9316 20.5571V22.1978C21.9316 22.355 21.8599 22.4336 21.7163 22.4336H20.0244ZM17.4097 25.0176C17.2866 25.0176 17.2251 24.939 17.2251 24.7817V23.1411C17.2251 22.9907 17.2866 22.9155 17.4097 22.9155H19.1118C19.2485 22.9155 19.3169 22.9907 19.3169 23.1411V24.7817C19.3169 24.939 19.2485 25.0176 19.1118 25.0176H17.4097ZM22.5879 25.0176C22.458 25.0176 22.3931 24.939 22.3931 24.7817V23.1411C22.3931 22.9907 22.458 22.9155 22.5879 22.9155H24.2798C24.4233 22.9155 24.4951 22.9907 24.4951 23.1411V24.7817C24.4951 24.939 24.4233 25.0176 24.2798 25.0176H22.5879Z" fill="#E4DEC1" fill-opacity="0.9"/>
</svg>
