<svg width="32" height="32" viewBox="0 0 32 32" fill="none" xmlns="http://www.w3.org/2000/svg">
<path d="M26.4043 21.8696C26.418 22.813 26.1958 23.5273 25.7378 24.0127C25.2798 24.5049 24.5859 24.751 23.6562 24.751H7.68066C6.91504 24.751 6.33398 24.522 5.9375 24.064C5.54785 23.6128 5.33936 22.9429 5.31201 22.0542L9.00342 18.7524C9.20166 18.5679 9.40332 18.4312 9.6084 18.3423C9.81348 18.2534 10.0254 18.209 10.2441 18.209C10.4697 18.209 10.6919 18.2568 10.9106 18.3525C11.1362 18.4482 11.3516 18.585 11.5566 18.7627L13.3408 20.3828L17.7295 16.4658C17.9482 16.2676 18.1772 16.124 18.4165 16.0352C18.6626 15.9395 18.9189 15.8916 19.1855 15.8916C19.4453 15.8916 19.6982 15.9429 19.9443 16.0454C20.1973 16.1411 20.4297 16.2847 20.6416 16.4761L26.4043 21.8696ZM11.854 16.6401C11.4302 16.6401 11.0439 16.5376 10.6953 16.3325C10.3467 16.1206 10.0664 15.8403 9.85449 15.4917C9.64941 15.1431 9.54688 14.7534 9.54688 14.3228C9.54688 13.9126 9.64941 13.5332 9.85449 13.1846C10.0664 12.8291 10.3467 12.5454 10.6953 12.3335C11.0439 12.1216 11.4302 12.0156 11.854 12.0156C12.2778 12.0156 12.6606 12.1216 13.0024 12.3335C13.3511 12.5454 13.6279 12.8291 13.833 13.1846C14.0449 13.5332 14.1509 13.9126 14.1509 14.3228C14.1509 14.7534 14.0449 15.1431 13.833 15.4917C13.6279 15.8403 13.3511 16.1206 13.0024 16.3325C12.6606 16.5376 12.2778 16.6401 11.854 16.6401ZM7.58838 25.4995C6.56299 25.4995 5.78711 25.2397 5.26074 24.7202C4.73438 24.2075 4.47119 23.4419 4.47119 22.4233V10.5903C4.47119 9.57178 4.73438 8.80615 5.26074 8.29346C5.78711 7.77393 6.56299 7.51416 7.58838 7.51416H24.2817C25.3208 7.51416 26.1001 7.77393 26.6196 8.29346C27.1392 8.80615 27.3989 9.57178 27.3989 10.5903V22.4233C27.3989 23.4419 27.1392 24.2075 26.6196 24.7202C26.1001 25.2397 25.3208 25.4995 24.2817 25.4995H7.58838ZM7.66016 23.7563H24.21C24.6748 23.7563 25.0337 23.6333 25.2866 23.3872C25.5396 23.1411 25.666 22.7788 25.666 22.3003V10.7134C25.666 10.228 25.5396 9.8623 25.2866 9.61621C25.0337 9.37012 24.6748 9.24707 24.21 9.24707H7.66016C7.19531 9.24707 6.83984 9.37012 6.59375 9.61621C6.34766 9.8623 6.22461 10.228 6.22461 10.7134V22.3003C6.22461 22.7788 6.34766 23.1411 6.59375 23.3872C6.83984 23.6333 7.19531 23.7563 7.66016 23.7563Z" fill="#7C86E1"/>
</svg>
