<svg width="32" height="32" viewBox="0 0 32 32" fill="none" xmlns="http://www.w3.org/2000/svg">
<path d="M15.4917 17.1836C14.9312 17.1836 14.6509 16.917 14.6509 16.3838C14.6509 16.3633 14.6509 16.3462 14.6509 16.3325C14.6509 16.312 14.6509 16.2915 14.6509 16.271C14.6509 15.813 14.7637 15.4438 14.9893 15.1636C15.2217 14.8765 15.5088 14.6167 15.8506 14.3843C16.2607 14.0903 16.5684 13.8442 16.7734 13.646C16.9785 13.4409 17.0811 13.1812 17.0811 12.8667C17.0811 12.5112 16.9546 12.2275 16.7017 12.0156C16.4556 11.7969 16.124 11.6875 15.707 11.6875C15.4062 11.6875 15.1362 11.7593 14.897 11.9028C14.6577 12.0464 14.4526 12.2583 14.2817 12.5386L14.1279 12.7437C14.0322 12.8667 13.9263 12.9658 13.8101 13.041C13.6938 13.1094 13.5503 13.1436 13.3794 13.1436C13.2017 13.1436 13.0376 13.082 12.8872 12.959C12.7437 12.8359 12.6719 12.6616 12.6719 12.436C12.6719 12.354 12.6787 12.272 12.6924 12.1899C12.7129 12.1079 12.7334 12.0259 12.7539 11.9438C12.8975 11.4995 13.2324 11.1133 13.7588 10.7852C14.292 10.4502 14.9722 10.2827 15.7993 10.2827C16.353 10.2827 16.8657 10.3818 17.3374 10.5801C17.8091 10.7715 18.1851 11.0518 18.4653 11.4209C18.7524 11.7832 18.896 12.2344 18.896 12.7744C18.896 13.3418 18.749 13.793 18.4551 14.1279C18.168 14.4629 17.7886 14.7808 17.3169 15.0815C16.9956 15.3003 16.7529 15.5054 16.5889 15.6968C16.4248 15.8813 16.3394 16.1069 16.3325 16.3735C16.3325 16.3872 16.3325 16.4043 16.3325 16.4248C16.3325 16.4453 16.3325 16.4624 16.3325 16.4761C16.3257 16.6743 16.2471 16.8418 16.0967 16.9785C15.9463 17.1152 15.7446 17.1836 15.4917 17.1836ZM15.4712 20.0957C15.1772 20.0957 14.9243 19.9966 14.7124 19.7983C14.5005 19.5933 14.3945 19.3506 14.3945 19.0703C14.3945 18.7764 14.5005 18.5303 14.7124 18.332C14.9243 18.1338 15.1772 18.0347 15.4712 18.0347C15.772 18.0347 16.0283 18.1338 16.2402 18.332C16.4521 18.5234 16.5581 18.7695 16.5581 19.0703C16.5581 19.3574 16.4487 19.6001 16.23 19.7983C16.0181 19.9966 15.7651 20.0957 15.4712 20.0957ZM11.021 27.2324C10.6519 27.2324 10.3682 27.1128 10.1699 26.8735C9.97168 26.6343 9.87256 26.3164 9.87256 25.9199V23.459H9.44189C8.49854 23.459 7.69189 23.2847 7.02197 22.936C6.35889 22.5874 5.84961 22.0781 5.49414 21.4082C5.14551 20.7314 4.97119 19.9146 4.97119 18.9575V11.4824C4.97119 10.5254 5.14551 9.71191 5.49414 9.04199C5.84277 8.36523 6.35205 7.85254 7.02197 7.50391C7.69189 7.14844 8.50879 6.9707 9.47266 6.9707H21.9106C22.8745 6.9707 23.6914 7.14844 24.3613 7.50391C25.0312 7.85938 25.5371 8.37207 25.8789 9.04199C26.2275 9.71191 26.4019 10.5254 26.4019 11.4824V18.9575C26.4019 19.9146 26.2275 20.728 25.8789 21.3979C25.5371 22.0679 25.0312 22.5806 24.3613 22.936C23.6914 23.2847 22.8745 23.459 21.9106 23.459H15.8711L12.5283 26.4224C12.2139 26.6958 11.9473 26.8975 11.7285 27.0273C11.5166 27.1641 11.2808 27.2324 11.021 27.2324ZM11.4619 25.2637L14.5483 22.208C14.7397 22.0029 14.9209 21.8696 15.0918 21.8081C15.2695 21.7466 15.502 21.7158 15.7891 21.7158H21.8696C22.8198 21.7158 23.5239 21.48 23.9819 21.0083C24.4399 20.5366 24.6689 19.8428 24.6689 18.9268V11.5132C24.6689 10.5972 24.4399 9.90332 23.9819 9.43164C23.5239 8.95996 22.8198 8.72412 21.8696 8.72412H9.51367C8.56348 8.72412 7.85938 8.95996 7.40137 9.43164C6.9502 9.90332 6.72461 10.5972 6.72461 11.5132V18.9268C6.72461 19.8428 6.9502 20.5366 7.40137 21.0083C7.85938 21.48 8.56348 21.7158 9.51367 21.7158H10.6929C10.9663 21.7158 11.1611 21.7739 11.2773 21.8901C11.4004 22.0063 11.4619 22.2046 11.4619 22.4849V25.2637Z" fill="#FF9500"/>
</svg>
